<?xml version="1.0" encoding="utf-8"?>
<!-- Generator: Adobe Illustrator 26.1.0, SVG Export Plug-In . SVG Version: 6.00 Build 0)  -->
<svg version="1.1"
	 id="Layer_1" shape-rendering="geometricPrecision" image-rendering="optimizeQuality" text-rendering="geometricPrecision"
	 xmlns="http://www.w3.org/2000/svg" xmlns:xlink="http://www.w3.org/1999/xlink" x="0px" y="0px" viewBox="0 0 31 31"
	 style="enable-background:new 0 0 31 31;" xml:space="preserve">
<style type="text/css">
	.st0{fill:#9446C3;}
	.st1{fill:#FFFFFF;}
</style>
<circle class="st0" cx="15.5" cy="15.5" r="15.5"/>
<path class="st1" d="M11.1,6.8h6.5c0.1,0,0.3,0.1,0.4,0.2l4.1,4.4c0.1,0.1,0.1,0.2,0.1,0.4v10c0,0.7-0.3,1.3-0.7,1.7l0,0
	c-0.4,0.4-1,0.7-1.7,0.7h-8.7c-0.7,0-1.3-0.3-1.7-0.7c-0.4-0.4-0.7-1-0.7-1.7V9.2c0-0.7,0.3-1.3,0.7-1.7C9.9,7,10.5,6.8,11.1,6.8z
	 M12.7,15.4c-0.3,0-0.5-0.2-0.5-0.5s0.2-0.5,0.5-0.5h5.6c0.3,0,0.5,0.2,0.5,0.5s-0.2,0.5-0.5,0.5H12.7z M12.7,18.1
	c-0.3,0-0.5-0.2-0.5-0.5c0-0.3,0.2-0.5,0.5-0.5H18c0.3,0,0.5,0.2,0.5,0.5c0,0.3-0.2,0.5-0.5,0.5H12.7z M12.7,20.8
	c-0.3,0-0.5-0.2-0.5-0.5c0-0.3,0.2-0.5,0.5-0.5h4.5c0.3,0,0.5,0.2,0.5,0.5c0,0.3-0.2,0.5-0.5,0.5H12.7z M17.9,8.4v1.9
	c0,0.4,0.2,0.8,0.4,1c0.3,0.2,0.7,0.4,1.3,0.4H21L17.9,8.4z M21.2,12.8h-1.5c-0.8,0-1.6-0.2-2-0.7c-0.5-0.4-0.8-1-0.8-1.8v-0.1V7.8
	h-5.7c-0.4,0-0.7,0.1-1,0.4c-0.2,0.3-0.4,0.6-0.4,1v12.5c0,0.4,0.1,0.7,0.4,1c0.2,0.2,0.6,0.4,1,0.4h8.7c0.4,0,0.7-0.1,1-0.4
	c0.2-0.2,0.4-0.6,0.4-1V12.8L21.2,12.8z"/>
</svg>
