<?xml version="1.0" encoding="utf-8"?>
<!-- Generator: Adobe Illustrator 26.1.0, SVG Export Plug-In . SVG Version: 6.00 Build 0)  -->
<svg version="1.1" id="Layer_1" xmlns="http://www.w3.org/2000/svg" xmlns:xlink="http://www.w3.org/1999/xlink" x="0px" y="0px"
	 viewBox="0 0 300 300" style="enable-background:new 0 0 300 300;" xml:space="preserve">
<style type="text/css"></style>
<g>
	<path fill="#9446C3" class="st0" d="M37.04,235.48c-0.39-0.33-0.86-0.68-1.27-1.09c-5.81-5.8-11.57-11.66-17.45-17.4
		c-1.39-1.36-1.09-2.1,0.12-3.32c36.62-36.57,73.23-73.15,109.77-109.8c1.83-1.83,2.65-0.95,3.97,0.36
		c14.18,14.23,28.44,28.38,42.56,42.67c1.86,1.88,2.76,1.85,4.6-0.01c15.24-15.4,30.58-30.72,45.97-45.97
		c1.75-1.73,1.83-2.71,0.01-4.4c-3.91-3.64-7.55-7.56-11.4-11.27c-1.62-1.56-1.14-2.03,0.75-2.54c21.61-5.76,43.21-11.54,64.8-17.38
		c2.3-0.62,2.23,0.19,1.75,1.96c-5.79,21.49-11.55,42.99-17.25,64.51c-0.57,2.14-1.12,2.43-2.72,0.76
		c-3.63-3.78-7.52-7.33-11.05-11.2c-1.85-2.03-2.87-1.68-4.64,0.1c-21.98,22.1-44.08,44.09-66.04,66.21
		c-2.06,2.07-3.05,1.96-5.03-0.05c-13.83-14.02-27.79-27.9-41.74-41.81c-3.13-3.12-2.35-3.09-5.34-0.09
		c-29.33,29.31-58.64,58.63-87.97,87.94C38.78,234.34,38.27,235.28,37.04,235.48z"/>
</g>
</svg>
